<mxfile host="app.diagrams.net" modified="2021-06-29T12:21:09.242Z" agent="5.0 (Windows NT 10.0; Win64; x64) AppleWebKit/537.36 (KHTML, like Gecko) Chrome/91.0.4472.114 Safari/537.36" etag="kR2r9uizYTbsVOxPol6T" version="14.8.2" type="github">
  <diagram name="Page-1" id="e7e014a7-5840-1c2e-5031-d8a46d1fe8dd">
    <mxGraphModel dx="2207" dy="547" grid="1" gridSize="10" guides="1" tooltips="1" connect="1" arrows="1" fold="1" page="1" pageScale="1" pageWidth="1169" pageHeight="826" background="none" math="0" shadow="0">
      <root>
        <mxCell id="0" />
        <mxCell id="1" parent="0" />
        <mxCell id="2" value="會員登入" style="swimlane;whiteSpace=wrap" parent="1" vertex="1">
          <mxGeometry x="-380" y="130" width="380" height="592" as="geometry" />
        </mxCell>
        <mxCell id="5" value="" style="ellipse;shape=startState;fillColor=#000000;strokeColor=#ff0000;" parent="2" vertex="1">
          <mxGeometry x="100" y="20" width="30" height="30" as="geometry" />
        </mxCell>
        <mxCell id="7" value="登入" style="" parent="2" vertex="1">
          <mxGeometry x="60" y="90" width="110" height="50" as="geometry" />
        </mxCell>
        <mxCell id="9" value="" style="endArrow=open;endFill=1;rounded=0;strokeColor=#1A1A1A;" parent="2" source="7" edge="1">
          <mxGeometry relative="1" as="geometry">
            <mxPoint x="115" y="170" as="targetPoint" />
          </mxGeometry>
        </mxCell>
        <mxCell id="10" value="金蓮孕動中心畫面" style="" parent="2" vertex="1">
          <mxGeometry x="60" y="325" width="110" height="50" as="geometry" />
        </mxCell>
        <mxCell id="11" value="" style="endArrow=open;endFill=1;rounded=0;strokeColor=#1A1A1A;" parent="2" target="10" edge="1">
          <mxGeometry relative="1" as="geometry">
            <mxPoint x="115" y="290" as="sourcePoint" />
          </mxGeometry>
        </mxCell>
        <mxCell id="X4LJdxjyQ_kIWBrUNi4x-41" value="確認帳號" style="rhombus;whiteSpace=wrap;html=1;" parent="2" vertex="1">
          <mxGeometry x="62.75" y="170" width="104.5" height="58" as="geometry" />
        </mxCell>
        <mxCell id="X4LJdxjyQ_kIWBrUNi4x-138" value="" style="edgeStyle=orthogonalEdgeStyle;rounded=0;orthogonalLoop=1;jettySize=auto;html=1;strokeColor=#1A1A1A;" parent="2" source="16" target="10" edge="1">
          <mxGeometry relative="1" as="geometry" />
        </mxCell>
        <mxCell id="16" value="回傳畫面" style="" parent="2" vertex="1">
          <mxGeometry x="70" y="262.25" width="90" height="41.5" as="geometry" />
        </mxCell>
        <mxCell id="X4LJdxjyQ_kIWBrUNi4x-54" value="yes" style="text;html=1;strokeColor=none;fillColor=none;align=center;verticalAlign=middle;whiteSpace=wrap;rounded=0;" parent="2" vertex="1">
          <mxGeometry x="127.25" y="305" width="40" height="20" as="geometry" />
        </mxCell>
        <mxCell id="X4LJdxjyQ_kIWBrUNi4x-56" value="" style="edgeStyle=elbowEdgeStyle;elbow=horizontal;verticalAlign=bottom;endArrow=open;endSize=8;endFill=1;rounded=0;strokeColor=#1A1A1A;" parent="2" edge="1">
          <mxGeometry x="105" y="-108" as="geometry">
            <mxPoint x="115" y="90" as="targetPoint" />
            <mxPoint x="114.5" y="50" as="sourcePoint" />
          </mxGeometry>
        </mxCell>
        <mxCell id="X4LJdxjyQ_kIWBrUNi4x-71" value="" style="endArrow=none;html=1;strokeColor=#1A1A1A;entryX=0.5;entryY=1;entryDx=0;entryDy=0;" parent="2" target="10" edge="1">
          <mxGeometry width="50" height="50" relative="1" as="geometry">
            <mxPoint x="114.5" y="412" as="sourcePoint" />
            <mxPoint x="115" y="382" as="targetPoint" />
          </mxGeometry>
        </mxCell>
        <mxCell id="X4LJdxjyQ_kIWBrUNi4x-78" value="" style="endArrow=classic;html=1;strokeColor=#1A1A1A;" parent="2" edge="1">
          <mxGeometry width="50" height="50" relative="1" as="geometry">
            <mxPoint x="114.5" y="412" as="sourcePoint" />
            <mxPoint x="114.5" y="442" as="targetPoint" />
          </mxGeometry>
        </mxCell>
        <mxCell id="X4LJdxjyQ_kIWBrUNi4x-82" value="會員優惠" style="rounded=0;whiteSpace=wrap;html=1;" parent="2" vertex="1">
          <mxGeometry x="160" y="442" width="60" height="28" as="geometry" />
        </mxCell>
        <mxCell id="X4LJdxjyQ_kIWBrUNi4x-81" value="編輯資料" style="rounded=0;whiteSpace=wrap;html=1;" parent="2" vertex="1">
          <mxGeometry x="85.5" y="442" width="54.5" height="28" as="geometry" />
        </mxCell>
        <mxCell id="X4LJdxjyQ_kIWBrUNi4x-80" value="會員訂單" style="rounded=0;whiteSpace=wrap;html=1;" parent="2" vertex="1">
          <mxGeometry x="10" y="442" width="60" height="28" as="geometry" />
        </mxCell>
        <mxCell id="X4LJdxjyQ_kIWBrUNi4x-104" value="點數/推播" style="rounded=0;whiteSpace=wrap;html=1;" parent="2" vertex="1">
          <mxGeometry x="160" y="500" width="60" height="28" as="geometry" />
        </mxCell>
        <mxCell id="X4LJdxjyQ_kIWBrUNi4x-107" value="" style="endArrow=classic;html=1;strokeColor=#1A1A1A;entryX=0.5;entryY=0;entryDx=0;entryDy=0;" parent="2" target="X4LJdxjyQ_kIWBrUNi4x-104" edge="1">
          <mxGeometry width="50" height="50" relative="1" as="geometry">
            <mxPoint x="190" y="472" as="sourcePoint" />
            <mxPoint x="270" y="482" as="targetPoint" />
          </mxGeometry>
        </mxCell>
        <mxCell id="X4LJdxjyQ_kIWBrUNi4x-124" value="會員編輯畫面" style="rounded=0;whiteSpace=wrap;html=1;" parent="2" vertex="1">
          <mxGeometry x="250" y="331" width="100" height="38" as="geometry" />
        </mxCell>
        <mxCell id="X4LJdxjyQ_kIWBrUNi4x-128" value="" style="endArrow=classic;html=1;strokeColor=#1A1A1A;entryX=1;entryY=0.5;entryDx=0;entryDy=0;exitX=0;exitY=0.5;exitDx=0;exitDy=0;" parent="2" source="X4LJdxjyQ_kIWBrUNi4x-124" target="10" edge="1">
          <mxGeometry width="50" height="50" relative="1" as="geometry">
            <mxPoint x="320" y="442" as="sourcePoint" />
            <mxPoint x="290" y="442" as="targetPoint" />
          </mxGeometry>
        </mxCell>
        <mxCell id="X4LJdxjyQ_kIWBrUNi4x-131" value="" style="ellipse;shape=endState;fillColor=#000000;strokeColor=#ff0000" parent="2" vertex="1">
          <mxGeometry x="285" y="400" width="30" height="30" as="geometry" />
        </mxCell>
        <mxCell id="X4LJdxjyQ_kIWBrUNi4x-132" value="" style="endArrow=classic;html=1;strokeColor=#1A1A1A;exitX=0.5;exitY=1;exitDx=0;exitDy=0;entryX=0.5;entryY=0;entryDx=0;entryDy=0;" parent="2" source="X4LJdxjyQ_kIWBrUNi4x-124" target="X4LJdxjyQ_kIWBrUNi4x-131" edge="1">
          <mxGeometry width="50" height="50" relative="1" as="geometry">
            <mxPoint x="320" y="442" as="sourcePoint" />
            <mxPoint x="370" y="392" as="targetPoint" />
          </mxGeometry>
        </mxCell>
        <mxCell id="X4LJdxjyQ_kIWBrUNi4x-133" value="登出" style="text;html=1;strokeColor=none;fillColor=none;align=center;verticalAlign=middle;whiteSpace=wrap;rounded=0;" parent="2" vertex="1">
          <mxGeometry x="315" y="405" width="40" height="20" as="geometry" />
        </mxCell>
        <mxCell id="X4LJdxjyQ_kIWBrUNi4x-145" value="yes/no" style="text;html=1;strokeColor=none;fillColor=none;align=center;verticalAlign=middle;whiteSpace=wrap;rounded=0;" parent="2" vertex="1">
          <mxGeometry x="180" y="242.25" width="50" height="20" as="geometry" />
        </mxCell>
        <mxCell id="X4LJdxjyQ_kIWBrUNi4x-123" value="yes" style="text;html=1;strokeColor=none;fillColor=none;align=center;verticalAlign=middle;whiteSpace=wrap;rounded=0;" parent="2" vertex="1">
          <mxGeometry x="40" y="560" width="40" height="20" as="geometry" />
        </mxCell>
        <mxCell id="3" value="資料庫" style="swimlane;whiteSpace=wrap" parent="1" vertex="1">
          <mxGeometry y="130" width="410" height="592" as="geometry" />
        </mxCell>
        <mxCell id="X4LJdxjyQ_kIWBrUNi4x-120" value="會員資料表" style="shape=document;whiteSpace=wrap;html=1;boundedLbl=1;" parent="3" vertex="1">
          <mxGeometry x="41" y="500" width="119" height="71" as="geometry" />
        </mxCell>
        <mxCell id="X4LJdxjyQ_kIWBrUNi4x-130" value="yes" style="text;html=1;strokeColor=none;fillColor=none;align=center;verticalAlign=middle;whiteSpace=wrap;rounded=0;" parent="3" vertex="1">
          <mxGeometry x="39" y="480" width="40" height="20" as="geometry" />
        </mxCell>
        <mxCell id="X4LJdxjyQ_kIWBrUNi4x-147" value="訂單資料表" style="shape=document;whiteSpace=wrap;html=1;boundedLbl=1;" parent="3" vertex="1">
          <mxGeometry x="260" y="433" width="120" height="80" as="geometry" />
        </mxCell>
        <mxCell id="4" value="Thread 3" style="swimlane;whiteSpace=wrap" parent="1" vertex="1">
          <mxGeometry x="411" y="130" width="429" height="592" as="geometry" />
        </mxCell>
        <mxCell id="X4LJdxjyQ_kIWBrUNi4x-121" value="" style="endArrow=classic;html=1;strokeColor=#1A1A1A;exitX=0.5;exitY=1;exitDx=0;exitDy=0;entryX=-0.013;entryY=0.69;entryDx=0;entryDy=0;entryPerimeter=0;" parent="1" source="X4LJdxjyQ_kIWBrUNi4x-81" target="X4LJdxjyQ_kIWBrUNi4x-120" edge="1">
          <mxGeometry width="50" height="50" relative="1" as="geometry">
            <mxPoint x="-280" y="680" as="sourcePoint" />
            <mxPoint x="10" y="675" as="targetPoint" />
            <Array as="points">
              <mxPoint x="-270" y="680" />
              <mxPoint x="-70" y="680" />
            </Array>
          </mxGeometry>
        </mxCell>
        <mxCell id="X4LJdxjyQ_kIWBrUNi4x-125" value="" style="group" parent="1" vertex="1" connectable="0">
          <mxGeometry x="-340" y="540" width="150" height="30" as="geometry" />
        </mxCell>
        <mxCell id="X4LJdxjyQ_kIWBrUNi4x-70" value="" style="endArrow=none;html=1;strokeColor=#1A1A1A;" parent="X4LJdxjyQ_kIWBrUNi4x-125" edge="1">
          <mxGeometry width="50" height="50" relative="1" as="geometry">
            <mxPoint as="sourcePoint" />
            <mxPoint x="150" as="targetPoint" />
          </mxGeometry>
        </mxCell>
        <mxCell id="X4LJdxjyQ_kIWBrUNi4x-76" value="" style="endArrow=classic;html=1;strokeColor=#1A1A1A;" parent="X4LJdxjyQ_kIWBrUNi4x-125" edge="1">
          <mxGeometry width="50" height="50" relative="1" as="geometry">
            <mxPoint x="150" as="sourcePoint" />
            <mxPoint x="150" y="30" as="targetPoint" />
          </mxGeometry>
        </mxCell>
        <mxCell id="X4LJdxjyQ_kIWBrUNi4x-79" value="" style="endArrow=classic;html=1;strokeColor=#1A1A1A;" parent="X4LJdxjyQ_kIWBrUNi4x-125" edge="1">
          <mxGeometry width="50" height="50" relative="1" as="geometry">
            <mxPoint as="sourcePoint" />
            <mxPoint y="30" as="targetPoint" />
          </mxGeometry>
        </mxCell>
        <mxCell id="X4LJdxjyQ_kIWBrUNi4x-127" value="" style="endArrow=classic;html=1;strokeColor=#1A1A1A;entryX=1;entryY=0.5;entryDx=0;entryDy=0;exitX=1;exitY=1;exitDx=0;exitDy=0;" parent="1" source="X4LJdxjyQ_kIWBrUNi4x-130" target="X4LJdxjyQ_kIWBrUNi4x-124" edge="1">
          <mxGeometry width="50" height="50" relative="1" as="geometry">
            <mxPoint x="80" y="630" as="sourcePoint" />
            <mxPoint x="160" y="530" as="targetPoint" />
            <Array as="points">
              <mxPoint x="79" y="481" />
            </Array>
          </mxGeometry>
        </mxCell>
        <mxCell id="X4LJdxjyQ_kIWBrUNi4x-135" value="" style="endArrow=classic;html=1;strokeColor=#1A1A1A;exitX=1;exitY=0.75;exitDx=0;exitDy=0;" parent="1" source="X4LJdxjyQ_kIWBrUNi4x-104" edge="1">
          <mxGeometry width="50" height="50" relative="1" as="geometry">
            <mxPoint x="-160" y="640" as="sourcePoint" />
            <mxPoint x="40" y="650" as="targetPoint" />
          </mxGeometry>
        </mxCell>
        <mxCell id="X4LJdxjyQ_kIWBrUNi4x-143" value="" style="endArrow=classic;html=1;strokeColor=#1A1A1A;exitX=0.5;exitY=1;exitDx=0;exitDy=0;" parent="1" source="X4LJdxjyQ_kIWBrUNi4x-41" edge="1">
          <mxGeometry width="50" height="50" relative="1" as="geometry">
            <mxPoint x="-60" y="270" as="sourcePoint" />
            <mxPoint x="-265" y="390" as="targetPoint" />
          </mxGeometry>
        </mxCell>
        <mxCell id="X4LJdxjyQ_kIWBrUNi4x-144" value="" style="endArrow=classic;html=1;strokeColor=#1A1A1A;entryX=1;entryY=0;entryDx=0;entryDy=0;exitX=0.496;exitY=0.028;exitDx=0;exitDy=0;exitPerimeter=0;" parent="1" source="X4LJdxjyQ_kIWBrUNi4x-120" target="16" edge="1">
          <mxGeometry width="50" height="50" relative="1" as="geometry">
            <mxPoint x="160" y="640" as="sourcePoint" />
            <mxPoint x="-210" y="330" as="targetPoint" />
            <Array as="points">
              <mxPoint x="100" y="392" />
              <mxPoint x="80" y="392" />
            </Array>
          </mxGeometry>
        </mxCell>
        <mxCell id="X4LJdxjyQ_kIWBrUNi4x-149" style="edgeStyle=orthogonalEdgeStyle;rounded=0;orthogonalLoop=1;jettySize=auto;html=1;exitX=0.5;exitY=1;exitDx=0;exitDy=0;entryX=0.862;entryY=0.812;entryDx=0;entryDy=0;entryPerimeter=0;strokeColor=#1A1A1A;" parent="1" source="X4LJdxjyQ_kIWBrUNi4x-80" target="X4LJdxjyQ_kIWBrUNi4x-147" edge="1">
          <mxGeometry relative="1" as="geometry">
            <Array as="points">
              <mxPoint x="-340" y="710" />
              <mxPoint x="363" y="710" />
            </Array>
          </mxGeometry>
        </mxCell>
        <mxCell id="_wQPIyVeXe8-eEUFiAGU-16" value="" style="endArrow=classic;startArrow=classic;html=1;exitX=0.94;exitY=0.59;exitDx=0;exitDy=0;exitPerimeter=0;entryX=0.787;entryY=0.025;entryDx=0;entryDy=0;entryPerimeter=0;" edge="1" parent="1" source="X4LJdxjyQ_kIWBrUNi4x-41" target="X4LJdxjyQ_kIWBrUNi4x-120">
          <mxGeometry width="50" height="50" relative="1" as="geometry">
            <mxPoint x="60" y="510" as="sourcePoint" />
            <mxPoint x="130" y="626" as="targetPoint" />
            <Array as="points">
              <mxPoint x="30" y="334" />
              <mxPoint x="132" y="333" />
            </Array>
          </mxGeometry>
        </mxCell>
      </root>
    </mxGraphModel>
  </diagram>
</mxfile>
